<?xml version="1.0" encoding="UTF-8"?>
<svg width="141px" height="36px" viewBox="0 0 141 36" version="1.1" xmlns="http://www.w3.org/2000/svg" xmlns:xlink="http://www.w3.org/1999/xlink">
    <title>Group 20 Copy</title>
    <g id="Symbols" stroke="none" stroke-width="1" fill="none" fill-rule="evenodd">
        <g id="Navbar-/-Asociados-/-Ahorros" transform="translate(-40.000000, -12.000000)" fill="#FFFFFF">
            <g id="Group-20-Copy" transform="translate(40.000000, 12.000000)">
                <g id="Group-19" transform="translate(0.540000, 0.720000)">
                    <path d="M16.84899,0.35955 C14.35293,0.84465 12.60468,2.3346 11.62818,4.68954 L11.62818,4.68954 C11.11284,5.9319 10.98243,7.22529 11.24577,8.55144 L11.24577,8.55144 C11.29113,8.77761 11.23569,8.90613 10.98936,8.96661 L10.98936,8.96661 C10.72161,9.03402 10.46457,9.14742 10.20564,9.24822 L10.20564,9.24822 C10.07019,9.30051 9.94419,9.31059 9.80559,9.25263 L9.80559,9.25263 C8.9973,8.91054 8.16192,8.64909 7.31457,8.4267 L7.31457,8.4267 C6.40233,8.18604 5.47686,8.03988 4.5306,8.16588 L4.5306,8.16588 C4.04865,8.23014 3.84327,8.41788 3.76515,8.80659 L3.76515,8.80659 C3.70215,9.12726 3.8754,9.43092 4.26852,9.65016 L4.26852,9.65016 C4.67865,9.87822 4.94451,10.23354 5.15115,10.638 L5.15115,10.638 C5.40882,11.14326 5.57955,11.68569 5.79438,12.20985 L5.79438,12.20985 C5.89329,12.4524 5.85801,12.63762 5.68161,12.81591 L5.68161,12.81591 C4.70763,13.79808 4.26852,15.03288 4.01085,16.35399 L4.01085,16.35399 C3.95982,16.61292 4.03164,16.95501 3.83823,17.11125 L3.83823,17.11125 C3.69522,17.2278 3.48732,17.20638 3.28005,17.18496 L3.28005,17.18496 C3.19374,17.17551 3.10806,17.16732 3.02742,17.16795 L3.02742,17.16795 C1.84617,17.18496 0.8451,17.94789 0.60192,19.11906 L0.60192,19.11906 C0.4356,19.91853 0.36126,20.72304 0.36,21.52818 L0.36,21.52818 L0.36,21.57795 C0.36126,22.38309 0.43497,23.18823 0.5616,23.99148 L0.5616,23.99148 C0.66996,24.67944 1.02402,25.26786 1.59228,25.71075 L1.59228,25.71075 C2.09124,26.10009 2.67399,26.19333 3.27753,26.21979 L3.27753,26.21979 C3.42558,26.22546 3.5415,26.23428 3.61017,26.39745 L3.61017,26.39745 C3.99384,27.32481 4.54635,28.14948 5.19588,28.90674 L5.19588,28.90674 C5.32818,29.06172 5.30739,29.1789 5.24313,29.33703 L5.24313,29.33703 C5.01129,29.89962 4.78638,30.46662 4.56084,31.03173 L4.56084,31.03173 C4.3227,31.62771 4.32963,32.22054 4.59486,32.80455 L4.59486,32.80455 C5.02074,33.74451 5.78115,34.17795 6.786,34.19118 L6.786,34.19118 C7.94205,34.20756 9.09747,34.19622 10.25415,34.19559 L10.25415,34.19559 C11.06433,34.19496 11.40642,33.97698 11.68866,33.22728 L11.68866,33.22728 C11.77938,32.98599 11.88018,32.96079 12.11517,33.02379 L12.11517,33.02379 C13.69395,33.44841 15.30486,33.67836 16.93908,33.73758 L16.93908,33.73758 C18.80577,33.80562 20.64915,33.63678 22.45977,33.16617 L22.45977,33.16617 C22.57254,33.13719 22.63806,33.12522 22.70421,33.2676 L22.70421,33.2676 C23.00157,33.90642 23.53014,34.19118 24.22188,34.19181 L24.22188,34.19181 C25.29225,34.1937 26.36262,34.1999976 27.43299,34.18866 L27.43299,34.18866 C27.90612,34.18299 28.36728,34.09101 28.7793,33.83586 L28.7793,33.83586 C29.77911,33.21657 30.20688,32.02776 29.82825,30.90762 L29.82825,30.90762 C29.64303,30.36204 29.45214,29.81709 29.25621,29.27529 L29.25621,29.27529 C29.19258,29.10015 29.20014,28.96596 29.32299,28.8072 L29.32299,28.8072 C30.76758,26.94366 31.47066,24.82119 31.49208,22.47129 L31.49208,22.47129 C31.49397,22.25961 31.56012,22.16259 31.76235,22.12227 L31.76235,22.12227 C32.17689,22.04037 32.54481,21.85326 32.89257,21.61323 L32.89257,21.61323 C34.43229,20.54916 34.81659,18.38826 33.70464,16.88319 L33.70464,16.88319 C33.53769,16.65765 33.48036,16.44975 33.48099,16.18326 L33.48099,16.18326 C33.48162,15.64335 33.36507,15.12297 33.11874,14.64039 L33.11874,14.64039 C32.96691,14.34114 32.68215,14.25105 32.38731,14.38524 L32.38731,14.38524 C32.12523,14.50431 32.02002,14.75505 32.10822,15.0543 L32.10822,15.0543 C32.16681,15.2559 32.26887,15.44616 32.28966,15.7095 L32.28966,15.7095 C31.70187,15.51924 31.13928,15.38442 30.56031,15.47262 L30.56031,15.47262 C30.3291,15.5079 30.23271,15.44931 30.14829,15.24771 L30.14829,15.24771 C29.6424,14.04189 28.90656,12.98097 28.03527,12.01644 L28.03527,12.01644 C27.19233,11.08215 26.22591,10.29087 25.14168,9.64827 L25.14168,9.64827 C24.98166,9.55314 24.92055,9.46557 24.98544,9.26523 L24.98544,9.26523 C25.12215,8.83935 25.2198,8.39709 25.2513,7.95105 L25.2513,7.95105 C25.4025,5.85063 24.81156,3.99024 23.3487,2.45871 L23.3487,2.45871 C21.93057,0.97317 20.24406,0.21087 18.34146,0.21149961 L18.34146,0.21149961 C17.85762,0.21149961 17.35992,0.26064 16.84899,0.35955 M14.06187,11.54583 C13.01418,10.51578 12.42828,9.27783 12.27519,7.81434 L12.27519,7.81434 C11.94948,4.70529 14.29623,1.83879 17.25912,1.41669 L17.25912,1.41669 C17.57916,1.37133 17.89731,1.38393 18.12537,1.36188 L18.12537,1.36188 C20.96856,1.29825 23.43879,3.30858 24.01776,6.04278 L24.01776,6.04278 C24.41529,7.92207 23.94972,9.61173 22.75209,11.1105 L22.75209,11.1105 C22.57317,11.33352 22.41189,11.36061 22.16052,11.25162 L22.16052,11.25162 C20.95659,10.72935 19.69281,10.50003 18.38304,10.55736 L18.38304,10.55736 C17.02161,10.61658 15.72759,10.94733 14.53122,11.61261 L14.53122,11.61261 C14.44995,11.65734 14.38191,11.68065 14.31891,11.68065 L14.31891,11.68065 C14.23134,11.68065 14.15322,11.63592 14.06187,11.54583 M4.96026,17.81496 C5.02326,17.29647 5.10138,16.77987 5.18832,16.26453 L5.18832,16.26453 C5.40819,14.96925 6.05898,13.91148 7.01973,13.03704 L7.01973,13.03704 C7.20873,12.86442 7.28307,12.72582 7.13817,12.47382 L7.13817,12.47382 C6.88743,12.03849 6.75135,11.54835 6.57369,11.079 L6.57369,11.079 C6.33744,10.45026 6.07095,9.83475 5.589,9.26397 L5.589,9.26397 C6.28074,9.28854 6.87546,9.44541 7.46199,9.62307 L7.46199,9.62307 C8.21925,9.8505 8.96832,10.10565 9.69534,10.41939 L9.69534,10.41939 C9.88749,10.50192 10.05885,10.50444 10.251,10.42884 L10.251,10.42884 C10.62774,10.27953 11.01267,10.15038 11.39004,10.00044 L11.39004,10.00044 C11.5614,9.93177 11.65149,9.95571 11.72772,10.13967 L11.72772,10.13967 C12.03453,10.87677 12.45411,11.54583 13.02993,12.10401 L13.02993,12.10401 C13.2561,12.32199 13.23405,12.47319 12.98835,12.65148 L12.98835,12.65148 C12.79053,12.79323 12.60972,12.96396 12.43584,13.13784 L12.43584,13.13784 C12.16431,13.40874 12.15864,13.71051 12.40119,13.96062 L12.40119,13.96062 C12.60468,14.17041 12.96945,14.1786 13.21263,13.94991 L13.21263,13.94991 C13.54086,13.64184 13.88043,13.35204 14.25024,13.09437 L14.25024,13.09437 C15.79626,12.01833 17.51616,11.56851 19.37844,11.7216 L19.37844,11.7216 C21.20607,11.87217 22.79934,12.59352 24.12801,13.87179 L24.12801,13.87179 C24.35355,14.08977 24.60366,14.21262 24.90417,14.05701 L24.90417,14.05701 C25.13475,13.93794 25.23492,13.72437 25.19586,13.46418 L25.19586,13.46418 C25.16247,13.23801 25.00371,13.08429 24.83991,12.94758 L24.83991,12.94758 C24.48837,12.65211 24.15132,12.33585 23.75253,12.10338 L23.75253,12.10338 C23.54967,11.98557 23.55219,11.90304 23.70654,11.73042 L23.70654,11.73042 C23.97807,11.42802 24.19038,11.07837 24.3756,10.71549 L24.3756,10.71549 C24.44553,10.57689 24.50412,10.56555 24.64146,10.64871 L24.64146,10.64871 C26.61336,11.83437 28.07433,13.47993 29.0754,15.54507 L29.0754,15.54507 C29.18376,15.76935 29.17683,15.90732 28.962,16.10829 L28.962,16.10829 C27.4311,17.54028 28.12095,19.83096 29.87802,20.39985 L29.87802,20.39985 C30.23397,20.51577 30.33099,20.6676 30.35619,21.03741 L30.35619,21.03741 C30.43809,22.27284 30.38769,23.48811 30.0834,24.69267 L30.0834,24.69267 C29.70666,26.18388 29.00232,27.49365 27.97542,28.63647 L27.97542,28.63647 C26.17173,30.64176 23.87034,31.71654 21.27915,32.27283 L21.27915,32.27283 C19.69659,32.6124 18.0945,32.66784 16.4943,32.57523 L16.4943,32.57523 C14.23071,32.44356 12.03894,31.96287 9.96813,30.99393 L9.96813,30.99393 C8.66781,30.38472 7.48467,29.61108 6.46974,28.59489 L6.46974,28.59489 C5.56632,27.69021 4.87836,26.63937 4.47138,25.42032 L4.47138,25.42032 C4.3794,25.14816 4.25025,25.05618 3.96864,25.065 L3.96864,25.065 C3.59631,25.0776 3.22398,25.0839 2.8485,25.02783 L2.8485,25.02783 C2.38671,24.95979 2.0862,24.70086 1.88397,24.31908 L1.88397,24.31908 C1.67229,23.91966 1.54881,23.48811 1.55006045,23.02758 L1.55006045,23.02758 C1.55259,22.0977 1.5507,21.16593 1.55133,20.23416 L1.55133,20.23416 C1.55133,19.90971 1.61937,19.59597 1.72269,19.29294 L1.72269,19.29294 C1.96524,18.576 2.42199,18.28053 3.27627,18.26919 L3.27627,18.26919 C3.67254,18.26415 4.06881,18.26667 4.46508,18.26667 L4.46508,18.26667 C4.91679,18.26604 4.90545,18.26478 4.96026,17.81496 M29.2461296,18.03735 C29.24676,17.2215 29.87991,16.58646 30.68694,16.59276 L30.68694,16.59276 C31.47381,16.59906 32.07735,17.21457 32.0748379,18.00711 L32.0748379,18.00711 C32.07231,18.77508 31.43223,19.41516 30.66363,19.41579 L30.66363,19.41579 C30.663,19.41579 30.66237,19.41579 30.66174,19.41579 L30.66174,19.41579 C29.92779,19.41579 29.2455,18.7524 29.2461296,18.03735 M31.4757,20.90133 C31.43349,20.72745 31.32135,20.46915 31.53555,20.3841 L31.53555,20.3841 C32.40558,20.03886 32.90895,19.38681 33.1893,18.46827 L33.1893,18.46827 C33.40224,19.59156 32.61411,20.67642 31.78566,20.95173 L31.78566,20.95173 C31.72707,20.97063 31.65084,21.02229 31.58658,21.02229 L31.58658,21.02229 C31.5387,21.02229 31.49775,20.99394 31.4757,20.90133 M6.73938,33.04584 C5.83911,33.04206 5.29857,32.25393 5.6205,31.41288 L5.6205,31.41288 C5.80257,30.93597 6.00102,30.46536 6.20325,29.9664 L6.20325,29.9664 C6.94854,30.59451 7.72659,31.1319 8.55252,31.60062 L8.55252,31.60062 C9.17685,31.95594 9.8415,32.21802 10.49985,32.49648 L10.49985,32.49648 C10.58049,32.53176 10.75878,32.51223 10.68633,32.68233 L10.68633,32.68233 C10.629,32.81715 10.64727,33.0219 10.4274,33.04269 L10.4274,33.04269 C10.36377,33.04899 10.29888,33.04647 10.23525,33.04647 L10.23525,33.04647 C9.54981,33.04647 8.86437,33.04773 8.17893,33.04773 L8.17893,33.04773 C7.69887,33.04773 7.21881,33.0471 6.73938,33.04584 M23.86026,32.97717 C23.796,32.93244 23.74623,32.87196 23.75064,32.79321 L23.75064,32.79321 C23.75568,32.70816 23.84325,32.71698 23.89869,32.69682 L23.89869,32.69682 C25.34832,32.17014 26.65809,31.40217 27.83367,30.40299 L27.83367,30.40299 C27.84942,30.38913 27.86895,30.37905 27.88533,30.36582 L27.88533,30.36582 C28.30239,30.02688 28.30491,30.02562 28.49265,30.52017 L28.49265,30.52017 C28.59156,30.77973 28.68039,31.04307 28.7667,31.30641 L28.7667,31.30641 C29.0502,32.16888 28.44036,33.03135 27.53505,33.04332 L27.53505,33.04332 C26.98947,33.05088 26.44452,33.04521 25.89957,33.04521 L25.89957,33.04521 L25.89957,33.04647 L24.1992,33.04647 C24.18912,33.04647 24.17904,33.04647 24.16896,33.04647 L24.16896,33.04647 C24.06123,33.04647 23.95413,33.04395 23.86026,32.97717" id="Fill-1"></path>
                    <path d="M10.72035,29.530503 C10.65672,29.822193 10.80288,30.037653 11.18088,30.201453 L11.18088,30.201453 C13.03875,31.005963 14.98041,31.399083 17.08146,31.397823 L17.08146,31.397823 C17.49726,31.433733 17.98488,31.342383 18.47628,31.330413 L18.47628,31.330413 C18.83097,31.321593 19.02375,31.111803 19.03635,30.792393 L19.03635,30.792393 C19.04769,30.461013 18.88704,30.264453 18.53109,30.202083 L18.53109,30.202083 C18.40572,30.180663 18.27405,30.181923 18.14742,30.194523 L18.14742,30.194523 C16.64487,30.341943 15.16311,30.214053 13.69962,29.858103 L13.69962,29.858103 C12.97134,29.681073 12.27204,29.416473 11.58093,29.128563 L11.58093,29.128563 C11.46249,29.078793 11.35098,29.054853 11.25018,29.054853 L11.25018,29.054853 C10.9818,29.054853 10.78713,29.223693 10.72035,29.530503" id="Fill-4"></path>
                    <path d="M55.320255,15.749172 L54.463455,15.928722 C54.396045,15.144372 54.217125,14.456412 53.924805,13.864842 C53.631855,13.273272 53.253225,12.781242 52.787655,12.389382 C52.322085,11.997522 51.790995,11.704572 51.192495,11.511162 C50.594625,11.319642 49.962735,11.222622 49.298085,11.222622 C48.593115,11.222622 47.995245,11.285622 47.503845,11.411622 C47.011815,11.538252 46.616805,11.714652 46.316925,11.940192 C46.017675,12.166362 45.802215,12.439152 45.669285,12.757932 C45.536355,13.077342 45.469575,13.429512 45.469575,13.815072 C45.469575,14.333562 45.619515,14.745582 45.918135,15.051762 C46.217385,15.357312 46.613025,15.603642 47.105055,15.788862 C47.596455,15.975342 48.158415,16.121502 48.789675,16.227972 C49.421565,16.334442 50.062275,16.446582 50.713695,16.566912 C51.365745,16.685982 52.006455,16.832772 52.638345,17.005392 C53.269605,17.178642 53.831565,17.424342 54.323595,17.743122 C54.814995,18.062532 55.210635,18.477702 55.509885,18.989892 C55.809135,19.501452 55.959075,20.149722 55.959075,20.933442 C55.959075,21.731652 55.825515,22.419612 55.559655,22.997952 C55.293795,23.576292 54.912015,24.051942 54.413685,24.423642 C53.914725,24.795972 53.306775,25.068762 52.588575,25.240752 C51.870375,25.414002 51.066495,25.500942 50.175675,25.500942 C49.378095,25.500942 48.656745,25.396992 48.011625,25.190982 C47.367135,24.984972 46.745955,24.669342 46.147455,24.244092 C45.921285,24.097932 45.735435,24.024852 45.589275,24.024852 C45.416025,24.024852 45.276795,24.078402 45.170955,24.184242 C45.063855,24.291342 44.971245,24.436872 44.891235,24.622722 L44.651835,25.181532 L43.794405,25.181532 L43.794405,19.517832 L44.651835,19.398132 C44.718615,20.089872 44.898165,20.734362 45.190485,21.332232 C45.482805,21.931362 45.871515,22.449852 46.356615,22.888332 C46.842345,23.326812 47.416905,23.672682 48.082185,23.925312 C48.746205,24.177942 49.490865,24.303942 50.315535,24.303942 C53.053515,24.303942 54.423135,23.317362 54.423135,21.344202 C54.423135,20.797992 54.273825,20.368332 53.974575,20.054592 C53.675325,19.741482 53.279685,19.494522 52.787655,19.314972 C52.295625,19.134792 51.737445,18.994932 51.112485,18.894762 C50.488155,18.795222 49.846815,18.688122 49.189095,18.574722 C48.530745,18.461952 47.888775,18.321462 47.264445,18.154512 C46.639485,17.988822 46.081305,17.738712 45.589275,17.405442 C45.097245,17.072172 44.702235,16.634952 44.402985,16.095672 C44.103735,15.555132 43.954425,14.865912 43.954425,14.025492 C43.954425,13.546062 44.033805,13.065372 44.193195,12.585942 C44.353215,12.105882 44.632305,11.675592 45.031095,11.296332 C45.429885,10.915812 45.961605,10.609632 46.626255,10.376532 C47.290905,10.143432 48.135105,10.026252 49.158855,10.026252 C49.969665,10.026252 50.674005,10.114452 51.272505,10.289592 C51.870375,10.465362 52.448715,10.715472 53.007525,11.039292 C53.259525,11.201202 53.505855,11.282472 53.745255,11.282472 C54.011115,11.282472 54.224055,11.156472 54.383445,10.903842 L54.722385,10.365192 L55.320255,10.365192 L55.320255,15.749172 Z" id="Fill-7"></path>
                    <path d="M61.940799,19.996758 L67.843269,19.996758 L64.872189,12.439278 L61.940799,19.996758 Z M71.811639,23.885118 C71.971659,24.283908 72.522909,24.483618 73.467279,24.483618 L73.467279,25.181028 L66.886929,25.181028 L66.886929,24.483618 L68.860089,24.483618 C69.232419,24.483618 69.418899,24.350688 69.418899,24.084198 C69.405669,24.084198 69.399369,24.071598 69.399369,24.045138 C69.399369,24.018048 69.395589,23.994738 69.388659,23.974578 C69.382359,23.955048 69.379209,23.924808 69.379209,23.885118 L68.322069,21.193128 L61.482159,21.193128 L60.505659,23.725728 C60.491799,23.791878 60.482349,23.844798 60.475419,23.885118 C60.468489,23.924808 60.465339,23.951898 60.465339,23.965128 C60.465339,24.310998 60.757659,24.483618 61.342929,24.483618 L62.679159,24.483618 L62.679159,25.181028 L57.434409,25.181028 L57.434409,24.463458 C58.444299,24.463458 59.029569,24.277608 59.189589,23.905278 L64.692639,10.365318 L66.447819,10.365318 L71.811639,23.885118 Z" id="Fill-9"></path>
                    <path d="M80.984124,11.062917 C79.508664,11.062917 78.770304,11.369097 78.770304,11.980197 L78.770304,24.084387 L83.177154,24.084387 C83.762424,24.084387 84.287214,24.015087 84.752784,23.875227 C85.218354,23.735367 85.620294,23.486517 85.959234,23.127417 C86.298804,22.768317 86.574114,22.286367 86.787054,21.681567 C86.999364,21.077397 87.145524,20.302497 87.225534,19.358757 L88.062804,19.498617 L87.585264,25.181217 L74.941794,25.181217 L74.941794,24.483807 C76.124934,24.483807 76.717134,24.177627 76.717134,23.566527 L76.717134,11.980197 C76.717134,11.369097 76.124934,11.062917 74.941794,11.062917 L74.941794,10.365507 L80.984124,10.365507 L80.984124,11.062917 Z" id="Fill-11"></path>
                    <path d="M102.24171,11.083266 C101.60289,11.083266 101.16756,11.129886 100.93572,11.223126 C100.70262,11.315736 100.55268,11.455596 100.48653,11.641446 L94.98348,25.181406 L93.22767,25.181406 L87.86385,11.661606 C87.70446,11.262186 87.15258,11.063106 86.20884,11.063106 L86.20884,10.365066 L92.78919,10.365066 L92.78919,11.063106 L90.81477,11.063106 C90.42921,11.063106 90.23643,11.175876 90.23643,11.402046 C90.23643,11.482056 90.25722,11.568996 90.29691,11.661606 L94.8033,23.107446 L99.17046,11.820996 C99.21015,11.727756 99.23031,11.635146 99.23031,11.541906 C99.23031,11.223126 98.93106,11.063106 98.33319,11.063106 L96.99696,11.063106 L96.99696,10.365066 L102.24171,10.365066 L102.24171,11.083266 Z" id="Fill-13"></path>
                    <path d="M119.33109,11.062917 C118.13472,11.062917 117.53622,11.369097 117.53622,11.980197 L117.53622,19.138887 C117.53622,21.186387 117.05427,22.758237 116.09037,23.855697 C115.12647,24.951897 113.60817,25.500627 111.53421,25.500627 C109.43316,25.500627 107.901,24.951897 106.93773,23.855697 C105.97383,22.758237 105.49188,21.186387 105.49188,19.138887 L105.49188,11.980197 C105.49188,11.369097 104.90031,11.062917 103.71717,11.062917 L103.71717,10.365507 L109.7595,10.365507 L109.7595,11.062917 C108.28404,11.062917 107.54568,11.369097 107.54568,11.981457 L107.54568,19.151487 C107.54568,20.017107 107.61561,20.772477 107.75547,21.418227 C107.89533,22.063977 108.13473,22.599477 108.47367,23.025357 C108.81261,23.451867 109.26117,23.771277 109.81872,23.984847 C110.37753,24.197787 111.08187,24.304257 111.933,24.304257 C112.7835,24.304257 113.49099,24.197787 114.05673,23.984847 C114.62121,23.771277 115.07355,23.451867 115.41249,23.025357 C115.75143,22.599477 115.99398,22.063977 116.14077,21.418227 C116.28693,20.772477 116.36001,20.017107 116.36001,19.151487 L116.36001,11.981457 C116.36001,11.369097 115.61535,11.062917 114.12603,11.062917 L114.12603,10.365507 L119.33109,10.365507 L119.33109,11.062917 Z" id="Fill-15"></path>
                    <path d="M139.570407,11.062917 C138.374667,11.062917 137.775537,11.369097 137.775537,11.980197 L137.775537,23.566527 C137.775537,24.177627 138.374667,24.483807 139.570407,24.483807 L139.570407,25.181217 L133.947027,25.181217 L133.947027,24.483807 C135.130167,24.483807 135.722367,24.177627 135.722367,23.566527 L135.722367,12.179277 L130.676697,25.181217 L128.762757,25.181217 L123.717717,12.179277 L123.717717,23.566527 C123.717717,24.177627 124.308657,24.483807 125.491797,24.483807 L125.491797,25.181217 L120.746007,25.181217 L120.746007,24.483807 C121.929147,24.483807 122.521347,24.177627 122.521347,23.566527 L122.521347,11.980197 C122.521347,11.369097 121.929147,11.062917 120.746007,11.062917 L120.746007,10.365507 L125.372727,10.365507 L130.258377,23.306967 L135.144027,10.365507 L139.570407,10.365507 L139.570407,11.062917 Z" id="Fill-17"></path>
                </g>
            </g>
        </g>
    </g>
</svg>